<svg xmlns="http://www.w3.org/2000/svg" xmlns:xlink="http://www.w3.org/1999/xlink" xmlns:lucid="lucid" width="760" height="580"><g transform="translate(-20 -260)" lucid:page-tab-id="0_0"><path d="M40 286a6 6 0 0 1 6-6h148a6 6 0 0 1 6 6v108a6 6 0 0 1-6 6H46a6 6 0 0 1-6-6z" stroke="#9e66e4" stroke-width="2" fill="#bb86fc"/><use xlink:href="#a" transform="matrix(1,0,0,1,52,292) translate(39.18518518518518 36.333333333333336)"/><use xlink:href="#b" transform="matrix(1,0,0,1,52,292) translate(2.962962962962962 68.33333333333334)"/><path d="M600 706a6 6 0 0 1 6-6h148a6 6 0 0 1 6 6v108a6 6 0 0 1-6 6H606a6 6 0 0 1-6-6z" stroke="#9e66e4" stroke-width="2" fill="#bb86fc"/><use xlink:href="#c" transform="matrix(1,0,0,1,612,712) translate(28.95246913580248 37.15555555555556)"/><use xlink:href="#d" transform="matrix(1,0,0,1,612,712) translate(-0.38024691358022267 69.68888888888888)"/><path d="M320 706a6 6 0 0 1 6-6h148a6 6 0 0 1 6 6v108a6 6 0 0 1-6 6H326a6 6 0 0 1-6-6z" stroke="#9e66e4" stroke-width="2" fill="#bb86fc"/><use xlink:href="#c" transform="matrix(1,0,0,1,332,712) translate(28.95246913580248 36.68888888888888)"/><use xlink:href="#e" transform="matrix(1,0,0,1,332,712) translate(4.138271604938289 69.2222222222222)"/><path d="M40 706a6 6 0 0 1 6-6h148a6 6 0 0 1 6 6v108a6 6 0 0 1-6 6H46a6 6 0 0 1-6-6z" stroke="#9e66e4" stroke-width="2" fill="#bb86fc"/><use xlink:href="#c" transform="matrix(1,0,0,1,52,712) translate(28.95246913580248 36.68888888888888)"/><use xlink:href="#f" transform="matrix(1,0,0,1,52,712) translate(18.371604938271616 69.2222222222222)"/><path d="M320 286a6 6 0 0 1 6-6h148a6 6 0 0 1 6 6v108a6 6 0 0 1-6 6H326a6 6 0 0 1-6-6z" stroke="#9e66e4" stroke-width="2" fill="#bb86fc"/><use xlink:href="#a" transform="matrix(1,0,0,1,332,292) translate(39.18518518518518 36.333333333333336)"/><use xlink:href="#g" transform="matrix(1,0,0,1,332,292) translate(13.259259259259252 68.33333333333334)"/><path d="M600 286a6 6 0 0 1 6-6h148a6 6 0 0 1 6 6v108a6 6 0 0 1-6 6H606a6 6 0 0 1-6-6z" stroke="#9e66e4" stroke-width="2" fill="#bb86fc"/><use xlink:href="#a" transform="matrix(1,0,0,1,612,292) translate(39.18518518518518 37.333333333333336)"/><use xlink:href="#h" transform="matrix(1,0,0,1,612,292) translate(-5.925925925925924 69.33333333333334)"/><path d="M320 506a6 6 0 0 1 6-6h148a6 6 0 0 1 6 6v108a6 6 0 0 1-6 6H326a6 6 0 0 1-6-6z" stroke="#9e66e4" stroke-width="2" fill="#bb86fc"/><use xlink:href="#c" transform="matrix(1,0,0,1,332,512) translate(28.95246913580248 36.68888888888888)"/><use xlink:href="#i" transform="matrix(1,0,0,1,332,512) translate(15.434567901234587 69.2222222222222)"/><path d="M202.46 340h95.96" stroke="#03dac6" stroke-width="3" fill="none"/><path d="M202.5 341.5h-1.54v-3h1.54z" stroke="#03dac6" stroke-width=".05" fill="#03dac6"/><path d="M314.18 340l-14.26 4.64v-9.28z" stroke="#03dac6" stroke-width="3" fill="#03dac6"/><path d="M482.46 340h95.96" stroke="#03dac6" stroke-width="3" fill="none"/><path d="M482.5 341.5h-1.54v-3h1.54z" stroke="#03dac6" stroke-width=".05" fill="#03dac6"/><path d="M594.18 340l-14.26 4.64v-9.28z" stroke="#03dac6" stroke-width="3" fill="#03dac6"/><path d="M680 402.46V444a6 6 0 0 1-6 6H406a6 6 0 0 0-6 6v22.42" stroke="#03dac6" stroke-width="3" fill="none"/><path d="M681.5 402.5h-3v-1.54h3z" stroke="#03dac6" stroke-width=".05" fill="#03dac6"/><path d="M400 494.18l-4.64-14.26h9.28z" stroke="#03dac6" stroke-width="3" fill="#03dac6"/><path d="M400 622.46V654a6 6 0 0 0 6 6h268a6 6 0 0 1 6 6v12.42" stroke="#03dac6" stroke-width="3" fill="none"/><path d="M401.5 622.5h-3v-1.54h3z" stroke="#03dac6" stroke-width=".05" fill="#03dac6"/><path d="M680 694.18l-4.64-14.26h9.28z" stroke="#03dac6" stroke-width="3" fill="#03dac6"/><path d="M597.54 760h-95.96" stroke="#03dac6" stroke-width="3" fill="none"/><path d="M599.04 761.5h-1.54v-3h1.54z" stroke="#03dac6" stroke-width=".05" fill="#03dac6"/><path d="M485.82 760l14.26-4.64v9.28z" stroke="#03dac6" stroke-width="3" fill="#03dac6"/><path d="M317.54 760h-95.96" stroke="#03dac6" stroke-width="3" fill="none"/><path d="M319.04 761.5h-1.54v-3h1.54z" stroke="#03dac6" stroke-width=".05" fill="#03dac6"/><path d="M205.82 760l14.26-4.64v9.28z" stroke="#03dac6" stroke-width="3" fill="#03dac6"/><defs><path fill="#fff" d="M24-248c120-7 223 5 221 122C244-46 201 0 124 0H24v-248zM76-40c74 7 117-18 117-86 0-67-45-88-117-82v168" id="j"/><path fill="#fff" d="M133-34C117-15 103 5 69 4 32 3 11-16 11-54c-1-60 55-63 116-61 1-26-3-47-28-47-18 1-26 9-28 27l-52-2c7-38 36-58 82-57s74 22 75 68l1 82c-1 14 12 18 25 15v27c-30 8-71 5-69-32zm-48 3c29 0 43-24 42-57-32 0-66-3-65 30 0 17 8 27 23 27" id="k"/><path fill="#fff" d="M115-3C79 11 28 4 28-45v-112H4v-33h27l15-45h31v45h36v33H77v99c-1 23 16 31 38 25v30" id="l"/><g id="a"><use transform="matrix(0.07407407407407408,0,0,0.07407407407407408,0,0)" xlink:href="#j"/><use transform="matrix(0.07407407407407408,0,0,0.07407407407407408,19.185185185185187,0)" xlink:href="#k"/><use transform="matrix(0.07407407407407408,0,0,0.07407407407407408,34,0)" xlink:href="#l"/><use transform="matrix(0.07407407407407408,0,0,0.07407407407407408,42.814814814814824,0)" xlink:href="#k"/></g><path fill="#fff" d="M24 0v-248h195v40H76v63h132v40H76v65h150V0H24" id="m"/><path fill="#fff" d="M144 0l-44-69L55 0H2l70-98-66-92h53l41 62 40-62h54l-67 91 71 99h-54" id="n"/><path fill="#fff" d="M135-150c-39-12-60 13-60 57V0H25l-1-190h47c2 13-1 29 3 40 6-28 27-53 61-41v41" id="o"/><path fill="#fff" d="M190-63c-7 42-38 67-86 67-59 0-84-38-90-98-12-110 154-137 174-36l-49 2c-2-19-15-32-35-32-30 0-35 28-38 64-6 74 65 87 74 30" id="p"/><path fill="#fff" d="M25-224v-37h50v37H25zM25 0v-190h50V0H25" id="q"/><path fill="#fff" d="M110-194c64 0 96 36 96 99 0 64-35 99-97 99-61 0-95-36-95-99 0-62 34-99 96-99zm-1 164c35 0 45-28 45-65 0-40-10-65-43-65-34 0-45 26-45 65 0 36 10 65 43 65" id="r"/><path fill="#fff" d="M135-194c87-1 58 113 63 194h-50c-7-57 23-157-34-157-59 0-34 97-39 157H25l-1-190h47c2 12-1 28 3 38 12-26 28-41 61-42" id="s"/><g id="b"><use transform="matrix(0.07407407407407408,0,0,0.07407407407407408,0,0)" xlink:href="#m"/><use transform="matrix(0.07407407407407408,0,0,0.07407407407407408,17.77777777777778,0)" xlink:href="#n"/><use transform="matrix(0.07407407407407408,0,0,0.07407407407407408,32.592592592592595,0)" xlink:href="#l"/><use transform="matrix(0.07407407407407408,0,0,0.07407407407407408,41.40740740740741,0)" xlink:href="#o"/><use transform="matrix(0.07407407407407408,0,0,0.07407407407407408,51.777777777777786,0)" xlink:href="#k"/><use transform="matrix(0.07407407407407408,0,0,0.07407407407407408,66.59259259259261,0)" xlink:href="#p"/><use transform="matrix(0.07407407407407408,0,0,0.07407407407407408,81.40740740740742,0)" xlink:href="#l"/><use transform="matrix(0.07407407407407408,0,0,0.07407407407407408,90.22222222222223,0)" xlink:href="#q"/><use transform="matrix(0.07407407407407408,0,0,0.07407407407407408,97.62962962962962,0)" xlink:href="#r"/><use transform="matrix(0.07407407407407408,0,0,0.07407407407407408,113.85185185185186,0)" xlink:href="#s"/></g><path fill="#fff" d="M230 0l2-204L168 0h-37L68-204 70 0H24v-248h70l56 185 57-185h69V0h-46" id="t"/><path fill="#fff" d="M88-194c31-1 46 15 58 34l-1-101h50l1 261h-48c-2-10 0-23-3-31C134-8 116 4 84 4 32 4 16-41 15-95c0-56 19-97 73-99zm17 164c33 0 40-30 41-66 1-37-9-64-41-64s-38 30-39 65c0 43 13 65 39 65" id="u"/><path fill="#fff" d="M185-48c-13 30-37 53-82 52C43 2 14-33 14-96s30-98 90-98c62 0 83 45 84 108H66c0 31 8 55 39 56 18 0 30-7 34-22zm-45-69c5-46-57-63-70-21-2 6-4 13-4 21h74" id="v"/><path fill="#fff" d="M25 0v-261h50V0H25" id="w"/><g id="c"><use transform="matrix(0.07530864197530862,0,0,0.07530864197530862,0,0)" xlink:href="#t"/><use transform="matrix(0.07530864197530862,0,0,0.07530864197530862,22.517283950617276,0)" xlink:href="#r"/><use transform="matrix(0.07530864197530862,0,0,0.07530864197530862,39.00987654320986,0)" xlink:href="#u"/><use transform="matrix(0.07530864197530862,0,0,0.07530864197530862,55.50246913580246,0)" xlink:href="#v"/><use transform="matrix(0.07530864197530862,0,0,0.07530864197530862,70.56419753086418,0)" xlink:href="#w"/></g><path fill="#fff" d="M128 0H69L1-190h53L99-40l48-150h52" id="x"/><path fill="#fff" d="M85 4C-2 5 27-109 22-190h50c7 57-23 150 33 157 60-5 35-97 40-157h50l1 190h-47c-2-12 1-28-3-38-12 25-28 42-61 42" id="y"/><g id="d"><use transform="matrix(0.07530864197530862,0,0,0.07530864197530862,0,0)" xlink:href="#m"/><use transform="matrix(0.07530864197530862,0,0,0.07530864197530862,18.07407407407407,0)" xlink:href="#x"/><use transform="matrix(0.07530864197530862,0,0,0.07530864197530862,33.1358024691358,0)" xlink:href="#k"/><use transform="matrix(0.07530864197530862,0,0,0.07530864197530862,48.19753086419752,0)" xlink:href="#w"/><use transform="matrix(0.07530864197530862,0,0,0.07530864197530862,55.72839506172838,0)" xlink:href="#y"/><use transform="matrix(0.07530864197530862,0,0,0.07530864197530862,72.22098765432096,0)" xlink:href="#k"/><use transform="matrix(0.07530864197530862,0,0,0.07530864197530862,87.28271604938269,0)" xlink:href="#l"/><use transform="matrix(0.07530864197530862,0,0,0.07530864197530862,96.24444444444441,0)" xlink:href="#q"/><use transform="matrix(0.07530864197530862,0,0,0.07530864197530862,103.77530864197529,0)" xlink:href="#r"/><use transform="matrix(0.07530864197530862,0,0,0.07530864197530862,120.26790123456784,0)" xlink:href="#s"/></g><path fill="#fff" d="M147 0H94L2-248h55l64 206c17-72 42-137 63-206h54" id="z"/><g id="e"><use transform="matrix(0.07530864197530862,0,0,0.07530864197530862,0,0)" xlink:href="#z"/><use transform="matrix(0.07530864197530862,0,0,0.07530864197530862,16.5679012345679,0)" xlink:href="#k"/><use transform="matrix(0.07530864197530862,0,0,0.07530864197530862,31.62962962962962,0)" xlink:href="#w"/><use transform="matrix(0.07530864197530862,0,0,0.07530864197530862,39.16049382716048,0)" xlink:href="#q"/><use transform="matrix(0.07530864197530862,0,0,0.07530864197530862,46.69135802469135,0)" xlink:href="#u"/><use transform="matrix(0.07530864197530862,0,0,0.07530864197530862,63.183950617283934,0)" xlink:href="#k"/><use transform="matrix(0.07530864197530862,0,0,0.07530864197530862,78.24567901234566,0)" xlink:href="#l"/><use transform="matrix(0.07530864197530862,0,0,0.07530864197530862,87.20740740740739,0)" xlink:href="#q"/><use transform="matrix(0.07530864197530862,0,0,0.07530864197530862,94.73827160493825,0)" xlink:href="#r"/><use transform="matrix(0.07530864197530862,0,0,0.07530864197530862,111.23086419753083,0)" xlink:href="#s"/></g><path fill="#fff" d="M169-182c-1-43-94-46-97-3 18 66 151 10 154 114 3 95-165 93-204 36-6-8-10-19-12-30l50-8c3 46 112 56 116 5-17-69-150-10-154-114-4-87 153-88 188-35 5 8 8 18 10 28" id="A"/><path fill="#fff" d="M195-6C206 82 75 100 31 46c-4-6-6-13-8-21l49-6c3 16 16 24 34 25 40 0 42-37 40-79-11 22-30 35-61 35-53 0-70-43-70-97 0-56 18-96 73-97 30 0 46 14 59 34l2-30h47zm-90-29c32 0 41-27 41-63 0-35-9-62-40-62-32 0-39 29-40 63 0 36 9 62 39 62" id="B"/><g id="f"><use transform="matrix(0.07530864197530862,0,0,0.07530864197530862,0,0)" xlink:href="#A"/><use transform="matrix(0.07530864197530862,0,0,0.07530864197530862,18.07407407407407,0)" xlink:href="#v"/><use transform="matrix(0.07530864197530862,0,0,0.07530864197530862,33.1358024691358,0)" xlink:href="#o"/><use transform="matrix(0.07530864197530862,0,0,0.07530864197530862,43.679012345679006,0)" xlink:href="#x"/><use transform="matrix(0.07530864197530862,0,0,0.07530864197530862,58.74074074074073,0)" xlink:href="#q"/><use transform="matrix(0.07530864197530862,0,0,0.07530864197530862,66.2716049382716,0)" xlink:href="#s"/><use transform="matrix(0.07530864197530862,0,0,0.07530864197530862,82.76419753086418,0)" xlink:href="#B"/></g><path fill="#fff" d="M199 0l-22-63H83L61 0H9l90-248h61L250 0h-51zm-33-102l-36-108c-10 38-24 72-36 108h72" id="C"/><path fill="#fff" d="M123 10C108 53 80 86 19 72V37c35 8 53-11 59-39L3-190h52l48 148c12-52 28-100 44-148h51" id="D"/><path fill="#fff" d="M137-138c1-29-70-34-71-4 15 46 118 7 119 86 1 83-164 76-172 9l43-7c4 19 20 25 44 25 33 8 57-30 24-41C81-84 22-81 20-136c-2-80 154-74 161-7" id="E"/><g id="g"><use transform="matrix(0.07407407407407408,0,0,0.07407407407407408,0,0)" xlink:href="#C"/><use transform="matrix(0.07407407407407408,0,0,0.07407407407407408,19.185185185185187,0)" xlink:href="#s"/><use transform="matrix(0.07407407407407408,0,0,0.07407407407407408,35.40740740740741,0)" xlink:href="#k"/><use transform="matrix(0.07407407407407408,0,0,0.07407407407407408,50.22222222222223,0)" xlink:href="#w"/><use transform="matrix(0.07407407407407408,0,0,0.07407407407407408,57.62962962962964,0)" xlink:href="#D"/><use transform="matrix(0.07407407407407408,0,0,0.07407407407407408,72.44444444444446,0)" xlink:href="#E"/><use transform="matrix(0.07407407407407408,0,0,0.07407407407407408,87.25925925925927,0)" xlink:href="#q"/><use transform="matrix(0.07407407407407408,0,0,0.07407407407407408,94.66666666666669,0)" xlink:href="#E"/></g><path fill="#fff" d="M24-248c93 1 206-16 204 79-1 75-69 88-152 82V0H24v-248zm52 121c47 0 100 7 100-41 0-47-54-39-100-39v80" id="F"/><path fill="#fff" d="M135-194c53 0 70 44 70 98 0 56-19 98-73 100-31 1-45-17-59-34 3 33 2 69 2 105H25l-1-265h48c2 10 0 23 3 31 11-24 29-35 60-35zM114-30c33 0 39-31 40-66 0-38-9-64-40-64-56 0-55 130 0 130" id="G"/><g id="h"><use transform="matrix(0.07407407407407408,0,0,0.07407407407407408,0,0)" xlink:href="#F"/><use transform="matrix(0.07407407407407408,0,0,0.07407407407407408,17.77777777777778,0)" xlink:href="#o"/><use transform="matrix(0.07407407407407408,0,0,0.07407407407407408,28.148148148148152,0)" xlink:href="#v"/><use transform="matrix(0.07407407407407408,0,0,0.07407407407407408,42.96296296296297,0)" xlink:href="#G"/><use transform="matrix(0.07407407407407408,0,0,0.07407407407407408,59.18518518518519,0)" xlink:href="#k"/><use transform="matrix(0.07407407407407408,0,0,0.07407407407407408,74,0)" xlink:href="#o"/><use transform="matrix(0.07407407407407408,0,0,0.07407407407407408,84.37037037037037,0)" xlink:href="#k"/><use transform="matrix(0.07407407407407408,0,0,0.07407407407407408,99.1851851851852,0)" xlink:href="#l"/><use transform="matrix(0.07407407407407408,0,0,0.07407407407407408,108,0)" xlink:href="#q"/><use transform="matrix(0.07407407407407408,0,0,0.07407407407407408,115.4074074074074,0)" xlink:href="#r"/><use transform="matrix(0.07407407407407408,0,0,0.07407407407407408,131.62962962962962,0)" xlink:href="#s"/></g><path fill="#fff" d="M136-208V0H84v-208H4v-40h212v40h-80" id="H"/><g id="i"><use transform="matrix(0.07530864197530862,0,0,0.07530864197530862,0,0)" xlink:href="#H"/><use transform="matrix(0.07530864197530862,0,0,0.07530864197530862,14.986419753086414,0)" xlink:href="#o"/><use transform="matrix(0.07530864197530862,0,0,0.07530864197530862,25.52962962962962,0)" xlink:href="#k"/><use transform="matrix(0.07530864197530862,0,0,0.07530864197530862,40.591358024691345,0)" xlink:href="#q"/><use transform="matrix(0.07530864197530862,0,0,0.07530864197530862,48.122222222222206,0)" xlink:href="#s"/><use transform="matrix(0.07530864197530862,0,0,0.07530864197530862,64.61481481481479,0)" xlink:href="#q"/><use transform="matrix(0.07530864197530862,0,0,0.07530864197530862,72.14567901234565,0)" xlink:href="#s"/><use transform="matrix(0.07530864197530862,0,0,0.07530864197530862,88.63827160493825,0)" xlink:href="#B"/></g></defs></g></svg>